<?xml version="1.0" encoding="utf-8"?>
<!-- Generator: Adobe Illustrator 19.0.0, SVG Export Plug-In . SVG Version: 6.00 Build 0)  -->
<svg version="1.1" xmlns="http://www.w3.org/2000/svg" xmlns:xlink="http://www.w3.org/1999/xlink" x="0px" y="0px"
	 viewBox="0 0 2700.4 799.9" style="enable-background:new 0 0 2700.4 799.9;" xml:space="preserve">
<style type="text/css">
	.st0{fill-rule:evenodd;clip-rule:evenodd;fill:#036D8E;}
	.st1{fill:#FF8752;}
	.st2{fill-rule:evenodd;clip-rule:evenodd;fill:#EDE8E6;}
	.st3{fill-rule:evenodd;clip-rule:evenodd;fill:#FF8752;}
	.st4{fill:#036D8E;}
	.st5{font-family:'Roboto-Light';}
	.st6{font-size:420px;}
	.st7{font-size:200px;}
</style>
<g id="Objects">
	<path class="st0" d="M400,599.8c117.1,0,212.6-95.5,212.6-212.6S517.1,174.5,400,174.5S187.3,270,187.3,387.2
		S282.8,599.8,400,599.8z"/>
	<g>
		<path class="st1" d="M364.1,213.7c1.8,7.6-3,15.2-10.6,17c-7.6,1.8-15.2-3-17-10.6c-1.5-6.5-2.2-13-2.2-19.3
			c0-17.1,5.2-33.4,14.1-46.3c9.2-13.4,22.5-23.3,38.1-26.9c4.3-1,8.8-1.5,13.3-1.5c4.5,0,9,0.5,13.3,1.5
			c15.6,3.6,28.8,13.5,38.1,26.9c8.9,12.9,14.1,29.2,14.1,46.3c0,6.3-0.7,12.8-2.2,19.3c-1.8,7.6-9.4,12.3-17,10.6
			c-7.6-1.8-12.3-9.4-10.6-17c1-4.3,1.5-8.6,1.5-12.9c0-11.4-3.3-22-9-30.3c-5.4-7.8-12.8-13.4-21.3-15.4c-2.2-0.5-4.5-0.8-6.9-0.8
			c-2.4,0-4.7,0.3-6.9,0.8c-8.5,2-15.9,7.6-21.3,15.4c-5.7,8.3-9,18.9-9,30.3C362.7,205,363.1,209.4,364.1,213.7z"/>
		<path class="st2" d="M399.9,167.1c26.3,0,47.7-21.4,47.7-47.7c0-26.3-21.4-47.7-47.7-47.7c-26.3,0-47.7,21.4-47.7,47.7
			C352.2,145.7,373.6,167.1,399.9,167.1z"/>
		<path class="st3" d="M399.9,157.8c21.1,0,38.4-17.2,38.4-38.4c0-21.1-17.2-38.4-38.4-38.4c-21.1,0-38.4,17.2-38.4,38.4
			C361.5,140.5,378.8,157.8,399.9,157.8z"/>
		<path class="st4" d="M353.2,107.9c-2.4,7.4-10.4,11.4-17.8,8.9c-7.4-2.4-11.4-10.4-8.9-17.8c5.3-16.1,15-30.2,28.1-40.2
			c12.4-9.4,27.7-15,45.3-15c17.4,0,32.6,5.5,45,14.7c13.1,9.8,22.8,23.7,28.2,39.5c2.5,7.4-1.4,15.4-8.8,18
			c-7.4,2.5-15.4-1.4-18-8.8c-3.6-10.5-9.9-19.7-18.4-26c-7.6-5.7-17.1-9.1-28.1-9.1c-11.1,0-20.7,3.5-28.3,9.2
			C363,87.9,356.7,97.2,353.2,107.9z"/>
	</g>
	<g>
		<path class="st1" d="M532.3,269.4c-5.7,5.3-14.6,5-20-0.7c-5.3-5.7-5-14.6,0.7-20c4.9-4.6,10.2-8.5,15.6-11.6
			c14.8-8.5,31.5-12.2,47.2-10.9c16.3,1.3,31.4,7.8,42.4,19.5c3,3.2,5.7,6.8,8,10.7c2.3,3.9,4,8,5.3,12.3
			c4.7,15.3,2.7,31.7-4.3,46.4c-6.7,14.2-18.2,26.8-33,35.4c-5.5,3.2-11.4,5.8-17.9,7.7c-7.5,2.3-15.4-1.9-17.6-9.4
			c-2.3-7.5,1.9-15.4,9.4-17.6c4.2-1.3,8.2-3,11.9-5.2c9.8-5.7,17.4-13.9,21.7-23c4.1-8.5,5.3-17.8,2.7-26.2
			c-0.6-2.1-1.6-4.2-2.8-6.3c-1.2-2.1-2.6-4-4.1-5.6c-6-6.4-14.6-10-24-10.7c-10-0.8-20.9,1.6-30.8,7.3
			C539,263.8,535.5,266.4,532.3,269.4z"/>
		<circle class="st2" cx="631.8" cy="253.2" r="47.7"/>
		<circle class="st3" cx="631.8" cy="253.2" r="38.4"/>
		<path class="st4" d="M618.4,207c-7.6,1.6-15.1-3.3-16.6-10.9c-1.6-7.6,3.3-15.1,10.9-16.6c16.6-3.4,33.7-2.1,48.9,4.3
			c14.3,6,26.9,16.5,35.7,31.8c8.7,15.1,11.6,31,9.8,46.3c-1.9,16.2-9.1,31.6-20.1,44.2c-5.1,5.9-14.1,6.5-19.9,1.4
			c-5.9-5.1-6.5-14.1-1.4-19.9c7.3-8.4,12.1-18.5,13.3-28.9c1.1-9.4-0.7-19.3-6.2-28.8c-5.6-9.6-13.3-16.2-22.2-19.9
			C640.7,205.5,629.4,204.7,618.4,207z"/>
	</g>
	<g>
		<path class="st1" d="M568.1,442.9c-7.5-2.3-11.7-10.2-9.4-17.6c2.3-7.5,10.2-11.7,17.6-9.4c6.4,2,12.4,4.6,17.9,7.7
			c14.8,8.5,26.3,21.2,33,35.4c7,14.7,8.9,31.1,4.3,46.4c-1.3,4.3-3.1,8.4-5.3,12.3c-2.3,3.9-4.9,7.5-8,10.7
			c-11,11.7-26.1,18.2-42.4,19.5c-15.7,1.2-32.4-2.4-47.2-10.9c-5.5-3.2-10.7-7-15.6-11.6c-5.7-5.3-6-14.3-0.7-20
			c5.3-5.7,14.3-6,20-0.7c3.2,3,6.7,5.6,10.5,7.7c9.8,5.7,20.7,8.1,30.8,7.3c9.4-0.7,18-4.3,24-10.7c1.5-1.6,2.9-3.5,4.1-5.6
			c1.2-2.1,2.1-4.2,2.8-6.3c2.5-8.4,1.3-17.6-2.7-26.2c-4.3-9.1-11.9-17.3-21.7-23C576.3,445.9,572.3,444.2,568.1,442.9z"/>
		<circle class="st2" cx="631.9" cy="521" r="47.7"/>
		<circle class="st3" cx="631.9" cy="521" r="38.4"/>
		<path class="st4" d="M665.2,486.3c-5.2-5.8-4.7-14.7,1.1-19.9c5.8-5.2,14.7-4.7,19.9,1.1c11.3,12.7,18.7,28.1,20.7,44.5
			c1.9,15.4-0.9,31.5-9.7,46.8c-8.7,15.1-21.1,25.5-35.2,31.6c-15,6.5-31.9,7.9-48.3,4.7c-7.7-1.5-12.7-8.9-11.2-16.6
			c1.5-7.7,8.9-12.7,16.6-11.2c10.9,2.1,22,1.2,31.7-2.9c8.7-3.7,16.4-10.3,21.9-19.8c5.6-9.6,7.3-19.6,6.2-29.2
			C677.6,504.8,672.7,494.7,665.2,486.3z"/>
	</g>
	<g>
		<path class="st1" d="M267.6,504.9c5.7-5.3,14.6-5,20,0.7c5.3,5.7,5,14.6-0.7,20c-4.9,4.6-10.2,8.5-15.6,11.6
			c-14.8,8.5-31.5,12.2-47.2,10.9c-16.3-1.3-31.4-7.8-42.4-19.5c-3-3.2-5.7-6.8-8-10.7c-2.3-3.9-4-8-5.3-12.3
			c-4.7-15.3-2.7-31.7,4.3-46.4c6.7-14.2,18.2-26.8,33-35.4c5.5-3.2,11.4-5.8,17.9-7.7c7.5-2.3,15.4,1.9,17.6,9.4
			c2.3,7.5-1.9,15.4-9.4,17.6c-4.2,1.3-8.2,3-11.9,5.2c-9.8,5.7-17.4,13.9-21.7,23c-4.1,8.5-5.3,17.8-2.7,26.2
			c0.6,2.1,1.6,4.2,2.8,6.3c1.2,2.1,2.6,4,4.1,5.6c6,6.4,14.6,10,24,10.7c10,0.8,20.9-1.6,30.8-7.3
			C260.9,510.5,264.4,507.9,267.6,504.9z"/>
		<circle class="st2" cx="168.1" cy="521.1" r="47.7"/>
		<circle class="st3" cx="168.1" cy="521.1" r="38.4"/>
		<path class="st4" d="M181.5,567.3c7.6-1.6,15.1,3.3,16.6,10.9c1.6,7.6-3.3,15.1-10.9,16.6c-16.6,3.4-33.7,2.1-48.9-4.3
			c-14.3-6-26.9-16.5-35.7-31.8c-8.7-15.1-11.6-31-9.8-46.3c1.9-16.2,9.1-31.6,20.1-44.2c5.1-5.9,14.1-6.5,19.9-1.4
			c5.9,5.1,6.5,14.1,1.4,19.9c-7.3,8.4-12.1,18.5-13.3,28.9c-1.1,9.4,0.7,19.3,6.2,28.8c5.6,9.6,13.3,16.2,22.2,19.9
			C159.2,568.8,170.5,569.6,181.5,567.3z"/>
	</g>
	<g>
		<path class="st1" d="M231.8,331.4c7.5,2.3,11.7,10.2,9.4,17.6c-2.3,7.5-10.2,11.7-17.6,9.4c-6.4-2-12.4-4.6-17.9-7.7
			c-14.8-8.5-26.3-21.2-33-35.4c-7-14.7-8.9-31.1-4.3-46.4c1.3-4.3,3.1-8.4,5.3-12.3c2.3-3.9,4.9-7.5,8-10.7
			c11-11.7,26.1-18.2,42.4-19.5c15.7-1.2,32.4,2.4,47.2,10.9c5.5,3.2,10.7,7,15.6,11.6c5.7,5.3,6,14.3,0.7,20
			c-5.3,5.7-14.3,6-20,0.7c-3.2-3-6.7-5.6-10.5-7.7c-9.8-5.7-20.7-8.1-30.8-7.3c-9.4,0.7-18,4.3-24,10.7c-1.5,1.6-2.9,3.5-4.1,5.6
			c-1.2,2.1-2.1,4.2-2.8,6.3c-2.5,8.4-1.3,17.6,2.7,26.2c4.3,9.1,11.9,17.3,21.7,23C223.6,328.4,227.6,330.1,231.8,331.4z"/>
		<circle class="st2" cx="168" cy="253.3" r="47.7"/>
		<circle class="st3" cx="168" cy="253.3" r="38.4"/>
		<path class="st4" d="M134.7,288.1c5.2,5.8,4.7,14.7-1.1,19.9c-5.8,5.2-14.7,4.7-19.9-1.1C102.4,294.1,95,278.7,93,262.3
			c-1.9-15.4,0.9-31.5,9.7-46.8c8.7-15.1,21.1-25.5,35.2-31.6c15-6.5,31.9-7.9,48.3-4.7c7.7,1.5,12.7,8.9,11.2,16.6
			c-1.5,7.7-8.9,12.7-16.6,11.2c-10.9-2.1-22-1.2-31.7,2.9c-8.7,3.7-16.4,10.3-21.9,19.8c-5.6,9.6-7.3,19.6-6.2,29.2
			C122.3,269.5,127.2,279.6,134.7,288.1z"/>
	</g>
	<g>
		<path class="st1" d="M435.8,560.7c-1.8-7.6,3-15.2,10.6-17c7.6-1.8,15.2,3,17,10.6c1.5,6.5,2.2,13,2.2,19.3
			c0,17.1-5.2,33.4-14.1,46.3c-9.2,13.4-22.5,23.3-38.1,26.9c-4.3,1-8.8,1.5-13.3,1.5c-4.5,0-9-0.5-13.3-1.5
			c-15.6-3.6-28.8-13.5-38.1-26.9c-8.9-12.9-14.1-29.2-14.1-46.3c0-6.3,0.7-12.8,2.2-19.3c1.8-7.6,9.4-12.3,17-10.6
			c7.6,1.8,12.3,9.4,10.6,17c-1,4.3-1.5,8.6-1.5,12.9c0,11.4,3.3,22,9,30.3c5.4,7.8,12.8,13.4,21.3,15.4c2.2,0.5,4.5,0.8,6.9,0.8
			c2.4,0,4.7-0.3,6.9-0.8c8.5-2,15.9-7.6,21.3-15.4c5.7-8.3,9-18.9,9-30.3C437.2,569.3,436.8,564.9,435.8,560.7z"/>
		<circle class="st2" cx="400" cy="654.9" r="47.7"/>
		<circle class="st3" cx="400" cy="654.9" r="38.4"/>
		<path class="st4" d="M446.8,666.4c2.4-7.4,10.4-11.4,17.8-8.9c7.4,2.4,11.4,10.4,8.9,17.8c-5.3,16.1-15,30.2-28.1,40.2
			c-12.4,9.4-27.7,15-45.3,15c-17.4,0-32.6-5.5-45-14.7c-13.1-9.8-22.8-23.7-28.2-39.5c-2.5-7.4,1.4-15.4,8.8-18
			c7.4-2.5,15.4,1.4,18,8.8c3.6,10.5,9.9,19.7,18.4,26c7.6,5.7,17.1,9.1,28.1,9.1c11.1,0,20.7-3.5,28.3-9.2
			C436.9,686.4,443.2,677.1,446.8,666.4z"/>
	</g>
</g>
<g id="Layer_2">
	<text transform="matrix(1 0 0 1 780.7855 401.5435)" class="st4 st5 st6">E-Meeting</text>
	<text transform="matrix(1 0 0 1 780.7849 640.416)" class="st1 st5 st7">Suan Dusit University</text>
</g>
</svg>
